<?xml version="1.0" encoding="utf-8"?>
<!-- Generator: Adobe Illustrator 18.1.1, SVG Export Plug-In . SVG Version: 6.00 Build 0)  -->
<!DOCTYPE svg PUBLIC "-//W3C//DTD SVG 1.1//EN" "http://www.w3.org/Graphics/SVG/1.1/DTD/svg11.dtd">
<svg version="1.1" id="spacesuit" xmlns="http://www.w3.org/2000/svg" xmlns:xlink="http://www.w3.org/1999/xlink" x="0px" y="0px"
	 viewBox="480 0 672 1600" enable-background="new 480 0 672 1600" xml:space="preserve">
<path id="helmet-interior" opacity="0.8" fill="#9B1033" enable-background="new    " d="M657.6,1440h332.8
	c27.2,0,48.8-21.6,48.8-48.8v-1164C1040,145.6,974.4,80,892.8,80H756c-108,0-196,88-196,196v1066.4C560,1396,604,1440,657.6,1440z"
	/>
<path id="visor" fill="#DA303A" d="M1040,1048V520V227.2C1040,145.6,974.4,80,892.8,80H756c-108,0-196,88-196,196v772H1040z"/>
<g id="space-ryan">
	<polygon id="body" fill="#FFDAB2" points="640,1320 640,1040 960,1040 960,1440 720,1440 720,1320 	"/>
	
		<linearGradient id="shadow-hat_1_" gradientUnits="userSpaceOnUse" x1="50.0301" y1="1464.9004" x2="50.1994" y2="1447.4589" gradientTransform="matrix(8 0 0 -8 400 12800)">
		<stop  offset="0" style="stop-color:#9B1033;stop-opacity:0.9"/>
		<stop  offset="1" style="stop-color:#FFDAB2;stop-opacity:0"/>
	</linearGradient>
	<polygon id="shadow-hat" fill="url(#shadow-hat_1_)" points="640,1056 720,1320 960,1320 960,1056 	"/>
	<g id="mouth">
		<path id="mouth-roof" fill="#48002F" d="M810,1371.8h-82v16.4c0,6.56,1.64,11.48,4.92,16.4c4.92-9.84,16.4-16.4,27.88-16.4h16.4
			c11.48,0,22.96,6.56,27.88,16.4c3.28-4.92,4.92-9.84,4.92-16.4V1371.8z"/>
		<path id="tongue" fill="#9B1033" d="M777.2,1388.2h-16.4c-11.48,0-22.96,6.56-27.88,16.4c4.92,9.84,16.4,16.4,27.88,16.4h16.4
			c11.48,0,22.96-6.56,27.88-16.4C800.16,1394.76,788.68,1388.2,777.2,1388.2z"/>
	</g>
	<g id="eyes">
		<g id="left-eye">
			<path id="left-eye_cornea" fill="#DA303A" d="M616,1128c0,17.6,6.4,32,24,32s24-14.4,24-32s-6.4-32-24-32S616,1110.4,616,1128z"
				/>
			<path id="left-eye-pupil" fill="#9B1033" d="M640,1138.4c-5.6,0-8-4.8-8-10.4s2.4-10.4,8-10.4s8,4.8,8,10.4
				S645.6,1138.4,640,1138.4z"/>
		</g>
		<g id="right-eye">
			<circle id="right-eye_cornea" fill="#DA303A" cx="792" cy="1128" r="40"/>
			<circle id="right-eye_pupil" fill="#48002F" cx="792" cy="1128" r="16"/>
		</g>
	</g>
	<g id="monocle">
		<g id="monocle-shadow">
			<rect id="monocle-shadow_handle" x="848" y="1128" fill="#9B1033" width="8" height="8"/>
			<rect id="monocle-shadow_chain" x="856" y="1344" fill="#9B1033" width="16" height="16"/>
			<path id="monocle-shadow_bottom" fill="#9B1033" d="M792,1184c-29.6,0-53.6-23.2-56-52c0,1.6,0,2.4,0,4c0,31.2,24.8,56,56,56
				c22.4,0,41.6-12.8,50.4-32H872v-8h-29.6C833.6,1171.2,814.4,1184,792,1184z"/>
			<path id="monocle-shadow_top" fill="#9B1033" d="M792,1088c-22.4,0-40,17.6-40,40c0,1.6,0,2.4,0.8,4c2.4-20,19.2-36,39.2-36
				s37.6,16,39.2,36c0-1.6,0.8-2.4,0.8-4C832,1105.6,814.4,1088,792,1088z"/>
		</g>
		<rect id="monocle-chain" x="856" y="1136" fill="#DA303A" width="16" height="208"/>
		<path id="monocle-ring" fill="#DA303A" d="M845.6,1112c-7.2-23.2-28-40-53.6-40c-31.2,0-56,24.8-56,56c0,1.6,0,2.4,0,4
			c2.4,28.8,26.4,52,56,52c22.4,0,41.6-12.8,50.4-32H872v-32v-8H845.6z M831.2,1132c-2.4,20-19.2,36-39.2,36s-37.6-16-39.2-36
			c0-1.6-0.8-2.4-0.8-4c0-22.4,17.6-40,40-40s40,17.6,40,40C832,1129.6,832,1130.4,831.2,1132z M856,1136h-8v-8h8V1136z"/>
		<circle id="monocle-glare" fill="#FFB07E" cx="784" cy="1112" r="8"/>
	</g>
</g>
<path id="spacesuit_1_" fill="#9B1033" d="M1152,1040c0-27.2-12.8-52-32-68V184.8C1120,82.4,1037.6,0,935.2,0H756.8
	C604,0,480,124,480,276.8v1058.4c0,71.2,40,132.8,98.4,163.2c37.6,20,61.6,57.6,61.6,100v1.6h400v-6.4c0-36.8,16.8-71.2,45.6-93.6
	c20.8-16.8,34.4-43.2,34.4-72v-320C1139.2,1092,1152,1067.2,1152,1040z M560,276c0-108,88-196,196-196h136.8
	c81.6,0,147.2,65.6,147.2,147.2V952c-43.2,0-79.2,31.2-86.4,72H560V276z M1040,1391.2c0,27.2-21.6,48.8-48.8,48.8H657.6
	c-54.4,0-97.6-44-97.6-97.6V1056h393.6c7.2,40.8,43.2,72,86.4,72V1391.2z"/>
<g id="glare">
	<ellipse id="glare-large" fill="#FC6339" cx="696" cy="248" rx="40" ry="56"/>
	<ellipse id="glare-small" fill="#FC6339" cx="648" cy="192" rx="16" ry="22.4"/>
</g>
<circle id="helmet-visor-circle" fill="#48002F" cx="1072" cy="1040" r="48"/>
</svg>
