<?xml version="1.0" encoding="utf-8"?>
<!-- Generator: Adobe Illustrator 18.1.1, SVG Export Plug-In . SVG Version: 6.00 Build 0)  -->
<!DOCTYPE svg PUBLIC "-//W3C//DTD SVG 1.1//EN" "http://www.w3.org/Graphics/SVG/1.1/DTD/svg11.dtd">
<svg version="1.1" id="comet" xmlns="http://www.w3.org/2000/svg" xmlns:xlink="http://www.w3.org/1999/xlink" x="0px" y="0px"
	 viewBox="0 0 1600 1600" enable-background="new 0 0 1600 1600" xml:space="preserve">
<linearGradient id="comet-tail_1_" gradientUnits="userSpaceOnUse" x1="-2.8668" y1="1559.8636" x2="78.0977" y2="1559.8636" gradientTransform="matrix(11.3136 -11.3136 -11.3136 -11.3136 18014.5059 18992.8379)">
	<stop  offset="0" style="stop-color:#DA303A;stop-opacity:0.4"/>
	<stop  offset="1" style="stop-color:#9B1033;stop-opacity:0"/>
</linearGradient>
<path id="comet-tail" fill="url(#comet-tail_1_)" d="M329.6,1144c-72,72-60.8,168,4.8,233.6s161.6,75.2,233.6,4.8
	c20.8-20.8,801.6-801.6,801.6-801.6l-238.4-238.4C1131.2,342.4,350.4,1124.8,329.6,1144z"/>
<g id="comet-body">
	<path id="comet-body-trailing" fill="#48002F" d="M774.4,835.2l22.4-22.4c9.6-9.6,9.6-24,0-33.6s-24-9.6-33.6,0l-22.4,22.4
		c-9.6,9.6-9.6,24,0,33.6S766.4,844.8,774.4,835.2z"/>
	
		<linearGradient id="comet-body-main_1_" gradientUnits="userSpaceOnUse" x1="448.4168" y1="1263.3553" x2="827.1402" y2="888.8872">
		<stop  offset="0" style="stop-color:#FFDAB2"/>
		<stop  offset="0.1528" style="stop-color:#FFB07E"/>
		<stop  offset="0.3112" style="stop-color:#FF8851"/>
		<stop  offset="0.4796" style="stop-color:#FC6339"/>
		<stop  offset="0.6528" style="stop-color:#DA303A"/>
		<stop  offset="0.8161" style="stop-color:#9B1033"/>
		<stop  offset="1" style="stop-color:#48002F"/>
	</linearGradient>
	<path id="comet-body-main" fill="url(#comet-body-main_1_)" d="M910.4,835.2c9.6-9.6,9.6-24,0-33.6s-24-9.6-33.6,0L582.4,1096
		c-9.6,9.6-24,9.6-33.6,0s-9.6-24,0-33.6l169.6-169.6c9.6-9.6,9.6-24,0-33.6s-24-9.6-33.6,0c0,0-300.8,300.8-316.8,316.8
		c-46.4,46.4-46.4,123.2,0,169.6s123.2,46.4,169.6,0C544,1339.2,888,995.2,888,995.2c9.6-9.6,9.6-24,0-33.6s-24-9.6-33.6,0
		l-180.8,179.2c-9.6,9.6-24,9.6-33.6,0c-9.6-9.6-9.6-24,0-33.6L910.4,835.2z"/>
</g>
</svg>
