<?xml version="1.0" encoding="utf-8"?>
<!-- Generator: Adobe Illustrator 18.1.1, SVG Export Plug-In . SVG Version: 6.00 Build 0)  -->
<!DOCTYPE svg PUBLIC "-//W3C//DTD SVG 1.1//EN" "http://www.w3.org/Graphics/SVG/1.1/DTD/svg11.dtd">
<svg version="1.1" id="planet" xmlns="http://www.w3.org/2000/svg" xmlns:xlink="http://www.w3.org/1999/xlink" x="0px" y="0px"
	 viewBox="0 0 1600 1600" enable-background="new 0 0 1600 1600" xml:space="preserve">
<circle id="planet-glow" opacity="0.4" fill="#48002F" fill-opacity="0.8" cx="590" cy="704" r="554.2"/>
<g id="crater-back">
	<path id="crater-back4" fill="#9B1033" d="M234.4,459.2l-33.5,58.9c-4.6,9.2-16.2,11.5-25.4,6.9l-12.7-8.1
		c-9.2-4.6-11.5-16.2-6.9-25.4l33.5-58.9c4.6-9.2,16.2-11.5,25.4-6.9l12.7,8.1C236.7,439.6,239,451.2,234.4,459.2z"/>
	<path id="crater-back3" fill="#9B1033" d="M204.4,863.4l55.4,95.8c8.1,15,3.5,33.5-11.5,41.6l-21.9,12.7
		c-15,8.1-33.5,3.5-41.6-11.5l-55.4-95.8c-8.1-15-3.5-33.5,11.5-41.6l21.9-12.7C176.7,843.7,195.2,848.3,204.4,863.4z"/>
	<path id="crater-back2" fill="#9B1033" d="M1004.5,758.3V649.8c0-16.2,13.9-30,30-30h24.2c16.2,0,30,13.9,30,30v108.5
		c0,16.2-13.9,30-30,30h-24.2C1018.4,788.3,1004.5,774.5,1004.5,758.3z"/>
	<path id="crater-back1" fill="#9B1033" d="M845.2,373.8l-97-55.4c-15-8.1-19.6-27.7-11.5-41.6l12.7-21.9
		c8.1-15,27.7-19.6,41.6-11.5l97,55.4c15,8.1,19.6,27.7,11.5,41.6l-12.7,21.9C878.7,377.3,859.1,381.9,845.2,373.8z"/>
</g>
<g id="planet_1_">
	<path id="planet-shadow" fill="#48002F" d="M772.5,267.6c24.2,55.4,36.9,117.8,36.9,182.4c0,260.9-212.4,473.4-473.4,473.4
		c-64.7,0-127-12.7-182.4-36.9c71.6,170.9,240.2,291,436.4,291c260.9,0,473.4-212.4,473.4-473.4
		C1063.4,507.7,943.4,339.2,772.5,267.6z"/>
	<path id="planet-light" fill="#9B1033" d="M809.4,450c0-64.7-12.7-127-36.9-182.4c-55.5-24.3-117.8-37-182.5-37
		C329.1,230.6,116.6,443,116.6,704c0,64.7,12.7,127,36.9,182.4c55.4,24.2,117.8,36.9,182.4,36.9C597,923.4,809.4,710.9,809.4,450z"
		/>
</g>
<g id="crater-down">
	<g id="crater-down4">
		<path id="down4-shadow" fill="#110022" d="M823.3,958h-87.8c-10.4,0-18.5-8.1-18.5-18.5v-5.8c0-10.4,8.1-18.5,18.5-18.5h87.8
			c10.4,0,18.5,8.1,18.5,18.5v5.8C841.7,950,833.7,958,823.3,958z"/>
		<path id="down4-surface" fill="#48002F" d="M823.3,966.1h-87.8c-10.4,0-18.5-8.1-18.5-18.5v-5.8c0-10.4,8.1-18.5,18.5-18.5h87.8
			c10.4,0,18.5,8.1,18.5,18.5v5.8C841.7,958,833.7,966.1,823.3,966.1z"/>
	</g>
	<g id="crater-down3">
		<path id="down3-shadow" fill="#110022" d="M413.4,792.9h-87.8c-10.4,0-18.5-8.1-18.5-18.5v-5.8c0-10.4,8.1-18.5,18.5-18.5h87.8
			c10.4,0,18.5,8.1,18.5,18.5v4.6C433,783.7,423.8,792.9,413.4,792.9z"/>
		<path id="down3-surface" fill="#48002F" d="M413.4,801h-87.8c-10.4,0-18.5-8.1-18.5-18.5v-5.8c0-10.4,8.1-18.5,18.5-18.5h87.8
			c10.4,0,18.5,8.1,18.5,18.5v5.8C433,792.9,423.8,801,413.4,801z"/>
	</g>
	<g id="crater-down2">
		<path id="down2-shadow" fill="#110022" d="M455,585.1H315.2c-16.2,0-30-13.9-30-30v-10.4c0-16.2,13.9-30,30-30H455
			c16.2,0,30,13.9,30,30v10.4C485,571.2,471.1,585.1,455,585.1z"/>
		<path id="down2-surface" fill="#48002F" d="M455,597.8H315.2c-16.2,0-30-13.9-30-30v-10.4c0-16.2,13.9-30,30-30H455
			c16.2,0,30,13.9,30,30v10.4C485,585.1,471.1,597.8,455,597.8z"/>
	</g>
	<g id="crater-down1">
		<path id="down1-shadow" fill="#110022" d="M913.3,514.7H803.6c-12.7,0-23.1-10.4-23.1-23.1v-8.1c0-12.7,10.4-23.1,23.1-23.1h109.7
			c12.7,0,23.1,10.4,23.1,23.1v8.1C936.4,504.3,926,514.7,913.3,514.7z"/>
		<path id="down1-surface" fill="#48002F" d="M913.3,525.1H803.6c-12.7,0-23.1-10.4-23.1-23.1v-8.1c0-12.7,10.4-23.1,23.1-23.1
			h109.7c12.7,0,23.1,10.4,23.1,23.1v8.1C936.4,514.7,926,525.1,913.3,525.1z"/>
	</g>
</g>
<g id="crater-up">
	<g id="crater-up4">
		<path id="up4-shadow" fill="#110022" d="M457.3,1050.4h-58.9c-10.4,0-17.3-8.1-17.3-17.3v-17.3c0-10.4,8.1-17.3,17.3-17.3h58.9
			c10.4,0,17.3,8.1,17.3,17.3v17.3C474.6,1042.3,466.5,1050.4,457.3,1050.4z"/>
		<path id="up4-surface" fill="#9B1033" d="M456.1,1040h-57.7c-10.4,0-18.5-8.1-18.5-18.5V1003c0-10.4,8.1-18.5,18.5-18.5h57.7
			c10.4,0,18.5,8.1,18.5,18.5v18.5C474.6,1031.9,466.5,1040,456.1,1040z"/>
	</g>
	<g id="crater-up3">
		<path id="up3-shadow" fill="#110022" d="M766.7,776.8H613.1c-18.5,0-33.5-15-33.5-33.5v-11.5c0-18.5,15-33.5,33.5-33.5h154.7
			c18.5,0,33.5,15,33.5,33.5v11.5C800.2,761.7,785.2,776.8,766.7,776.8z"/>
		<path id="up3-surface" fill="#9B1033" d="M765.5,767.5H615.4c-19.6,0-34.6-16.2-34.6-34.6v-17.3c0-19.6,16.2-34.6,34.6-34.6h150.1
			c19.6,0,34.6,16.2,34.6,34.6v16.2C800.2,751.4,784,767.5,765.5,767.5z"/>
	</g>
	<g id="crater-up2">
		<path id="up2-shadow" fill="#110022" d="M676.6,410.7H539.2c-16.2,0-28.9-12.7-28.9-28.9v-9.2c0-16.2,12.7-28.9,28.9-28.9h137.4
			c16.2,0,28.9,12.7,28.9,28.9v9.2C705.5,398,692.8,410.7,676.6,410.7z"/>
		<path id="up2-surface" fill="#9B1033" d="M675.5,399.2H539.2c-17.3,0-30-13.9-30-30v-12.7c0-17.3,13.9-30,30-30h135.1
			c17.3,0,30,13.9,30,30v12.7C705.5,385.3,691.6,399.2,675.5,399.2z"/>
	</g>
	<g id="crater-up1">
		<path id="up1-shadow" fill="#110022" d="M423.8,317.2l-85.4,49.6c-12.7,6.9-28.9,3.5-36.9-10.4L290,336.8
			c-6.9-12.7-3.5-28.9,10.4-36.9l85.4-49.6c12.7-6.9,28.9-3.5,36.9,10.4l11.5,19.6C439.9,293,436.5,309.1,423.8,317.2z"/>
		<path id="up1-surface" fill="#9B1033" d="M416.9,298.8l-90.1,52c-11.5,6.9-25.4,2.3-32.3-9.2l-5.8-6.9
			c-6.9-11.5-2.3-25.4,9.2-32.3l90.1-52c11.5-6.9,25.4-2.3,32.3,9.2l4.6,8.1C431.9,278,428.4,293,416.9,298.8z"/>
	</g>
</g>
<linearGradient id="comet-tail_1_" gradientUnits="userSpaceOnUse" x1="66.9474" y1="35.1822" x2="104.6675" y2="35.1822" gradientTransform="matrix(11.3136 -11.3136 11.3136 11.3136 -87.2535 891.0786)">
	<stop  offset="0" style="stop-color:#DA303A;stop-opacity:0.4"/>
	<stop  offset="1" style="stop-color:#9B1033;stop-opacity:0"/>
</linearGradient>
<path id="comet-tail" fill="url(#comet-tail_1_)" d="M1066,422.9c-33.5,33.5-28.3,78.3,2.2,108.8s75.3,35,108.8,2.2
	c9.7-9.7,373.4-373.4,373.4-373.4l-110.9-111C1439.5,49.5,1075.7,413.9,1066,422.9z"/>
<g id="comet-body">
	<path id="comet-body-trailing" fill="#48002F" d="M1273.3,279l10.4-10.4c4.5-4.5,4.5-11.2,0-15.7c-4.5-4.5-11.2-4.5-15.7,0
		l-10.4,10.4c-4.5,4.5-4.5,11.2,0,15.7C1262.1,283.5,1269.5,283.5,1273.3,279z"/>
	
		<linearGradient id="comet-body-main_1_" gradientUnits="userSpaceOnUse" x1="1121.2225" y1="1121.6746" x2="1297.6527" y2="1296.1223" gradientTransform="matrix(1 0 0 -1 0 1600)">
		<stop  offset="0" style="stop-color:#FFDAB2"/>
		<stop  offset="0.1528" style="stop-color:#FFB07E"/>
		<stop  offset="0.3112" style="stop-color:#FF8851"/>
		<stop  offset="0.4796" style="stop-color:#FC6339"/>
		<stop  offset="0.6528" style="stop-color:#DA303A"/>
		<stop  offset="0.8161" style="stop-color:#9B1033"/>
		<stop  offset="1" style="stop-color:#48002F"/>
	</linearGradient>
	<path id="comet-body-main" fill="url(#comet-body-main_1_)" d="M1336.6,279c4.5-4.5,4.5-11.2,0-15.7s-11.2-4.5-15.7,0l-137.1,137.1
		c-4.5,4.5-11.2,4.5-15.7,0s-4.5-11.2,0-15.7l79-79c4.5-4.5,4.5-11.2,0-15.7s-11.2-4.5-15.7,0c0,0-140.1,140.1-147.6,147.6
		c-21.6,21.6-21.6,57.4,0,79c21.6,21.6,57.4,21.6,79,0c3-3,163.2-163.2,163.2-163.2c4.5-4.5,4.5-11.2,0-15.7s-11.2-4.5-15.7,0
		l-84.2,83.5c-4.5,4.5-11.2,4.5-15.7,0s-4.5-11.2,0-15.7L1336.6,279z"/>
</g>
</svg>
