<?xml version="1.0" encoding="utf-8"?>
<!DOCTYPE svg PUBLIC "-//W3C//DTD SVG 1.1//EN" "http://www.w3.org/Graphics/SVG/1.1/DTD/svg11.dtd">

<svg
	version="1.1"
	id="planet"
	xmlns="http://www.w3.org/2000/svg"
	xmlns:xlink="http://www.w3.org/1999/xlink"
	x="0px"
	y="0px"
	viewBox="0 0 110 100"
	enable-background="new 0 0 110 100"
	xml:space="preserve"
>
	<circle
		id="planet-glow"
		fill="#333E4D"
		fill-opacity="0.8"
		cx="55"
		cy="50"
		r="48"
	/>
	<g
		id="crater-back"
	>
		<path
			id="crater-back4"
			fill="#52637A"
			d="M24.2,28.8l-2.9,5.1c-0.4,0.8-1.4,1-2.2,0.6l-1.1-0.7c-0.8-0.4-1-1.4-0.6-2.2l2.9-5.1
			c0.4-0.8,1.4-1,2.2-0.6l1.1,0.7C24.4,27.1,24.6,28.1,24.2,28.8z"
		/>
		<path
			id="crater-back3"
			fill="#52637A"
			d="M21.6,63.8l4.8,8.3c0.7,1.3,0.3,2.9-1,3.6l-1.9,1.1c-1.3,0.7-2.9,0.3-3.6-1l-4.8-8.3
			c-0.7-1.3-0.3-2.9,1-3.6l1.9-1.1C19.2,62.1,20.8,62.5,21.6,63.8z"
		/>
		<path
			id="crater-back2"
			fill="#52637A"
			d="M90.9,54.7v-9.4c0-1.4,1.2-2.6,2.6-2.6h2.1c1.4,0,2.6,1.2,2.6,2.6v9.4
			c0,1.4-1.2,2.6-2.6,2.6h-2.1C92.1,57.3,90.9,56.1,90.9,54.7z"
		/>
		<path
			id="crater-back1"
			fill="#52637A"
			d="M77.1,21.4l-8.4-4.8c-1.3-0.7-1.7-2.4-1-3.6l1.1-1.9c0.7-1.3,2.4-1.7,3.6-1l8.4,4.8
			c1.3,0.7,1.7,2.4,1,3.6l-1.1,1.9C80,21.7,78.3,22.1,77.1,21.4z"
		/>
	</g>
	<g
		id="planet"
	>
		<path
			id="planet-shadow"
			fill="#3D4A5C"
			d="M70.8,12.2C72.9,17,74,22.4,74,28c0,22.6-18.4,41-41,41c-5.6,0-11-1.1-15.8-3.2
			C23.4,80.6,38,91,55,91c22.6,0,41-18.4,41-41C96,33,85.6,18.4,70.8,12.2z"
		/>
		<path 
			id="planet-light" 
			fill="#52637A" 
			d="M74,28c0-5.6-1.1-11-3.2-15.8C66,10.1,60.6,9,55,9C32.4,9,14,27.4,14,50
			c0,5.6,1.1,11,3.2,15.8C22,67.9,27.4,69,33,69C55.6,69,74,50.6,74,28z"
		/>
	</g>
	<g 
		id="crater-down"
		>
		<g 
			id="crater-down4"
			>
			<path 
				id="down4-shadow" 
				fill="#29313D" 
				d="M75.2,72h-7.6c-0.9,0-1.6-0.7-1.6-1.6v-0.5c0-0.9,0.7-1.6,1.6-1.6h7.6
				c0.9,0,1.6,0.7,1.6,1.6v0.5C76.8,71.3,76.1,72,75.2,72z"
				/>
			<path 
				id="down4-surface" 
				fill="#3D4A5C" 
				d="M75.2,72.7h-7.6c-0.9,0-1.6-0.7-1.6-1.6v-0.5c0-0.9,0.7-1.6,1.6-1.6h7.6
				c0.9,0,1.6,0.7,1.6,1.6v0.5C76.8,72,76.1,72.7,75.2,72.7z"
				/>
		</g>
		<g 
			id="crater-down3"
			>
			<path 
				id="down3-shadow" 
				fill="#29313D" 
				d="M39.7,57.7h-7.6c-0.9,0-1.6-0.7-1.6-1.6v-0.5c0-0.9,0.7-1.6,1.6-1.6h7.6
				c0.9,0,1.6,0.7,1.6,1.6V56C41.4,56.9,40.6,57.7,39.7,57.7z"
				/>
			<path 
				id="down3-surface" 
				fill="#3D4A5C" 
				d="M39.7,58.4h-7.6c-0.9,0-1.6-0.7-1.6-1.6v-0.5c0-0.9,0.7-1.6,1.6-1.6h7.6
				c0.9,0,1.6,0.7,1.6,1.6v0.5C41.4,57.7,40.6,58.4,39.7,58.4z"
				/>
		</g>
		<g 
			id="crater-down2"
			>
			<path 
				id="down2-shadow" 
				fill="#29313D" 
				d="M43.3,39.7H31.2c-1.4,0-2.6-1.2-2.6-2.6v-0.9c0-1.4,1.2-2.6,2.6-2.6h12.1
				c1.4,0,2.6,1.2,2.6,2.6v0.9C45.9,38.5,44.7,39.7,43.3,39.7z"
				/>
			<path 
				id="down2-surface" 
				fill="#3D4A5C" 
				d="M43.3,40.8H31.2c-1.4,0-2.6-1.2-2.6-2.6v-0.9c0-1.4,1.2-2.6,2.6-2.6h12.1
				c1.4,0,2.6,1.2,2.6,2.6v0.9C45.9,39.7,44.7,40.8,43.3,40.8z"
				/>
		</g>
		<g 
			id="crater-down1"
			>
			<path 
				id="down1-shadow" 
				fill="#29313D" 
				d="M83,33.6h-9.5c-1.1,0-2-0.9-2-2v-0.7c0-1.1,0.9-2,2-2H83c1.1,0,2,0.9,2,2v0.7
				C85,32.7,84.1,33.6,83,33.6z"
				/>
			<path 
				id="down1-surface" 
				fill="#3D4A5C" 
				d="M83,34.5h-9.5c-1.1,0-2-0.9-2-2v-0.7c0-1.1,0.9-2,2-2H83c1.1,0,2,0.9,2,2v0.7
				C85,33.6,84.1,34.5,83,34.5z"
				/>
		</g>
	</g>
	<g 
		id="crater-up"
		>
		<g 
			id="crater-up4"
			>
			<path 
				id="up4-shadow" 
				fill="#29313D" 
				d="M43.5,80h-5.1c-0.9,0-1.5-0.7-1.5-1.5V77c0-0.9,0.7-1.5,1.5-1.5h5.1
				c0.9,0,1.5,0.7,1.5,1.5v1.5C45,79.3,44.3,80,43.5,80z"
				/>
			<path 
				id="up4-surface" 
				fill="#52637A" 
				d="M43.4,79.1h-5c-0.9,0-1.6-0.7-1.6-1.6v-1.6c0-0.9,0.7-1.6,1.6-1.6h5
				c0.9,0,1.6,0.7,1.6,1.6v1.6C45,78.4,44.3,79.1,43.4,79.1z"
				/>
		</g>
		<g 
			id="crater-up3"
			>
			<path 
				id="up3-shadow" 
				fill="#29313D" 
				d="M70.3,56.3H57c-1.6,0-2.9-1.3-2.9-2.9v-1c0-1.6,1.3-2.9,2.9-2.9h13.4
				c1.6,0,2.9,1.3,2.9,2.9v1C73.2,55,71.9,56.3,70.3,56.3z"
				/>
			<path 
				id="up3-surface" 
				fill="#52637A" 
				d="M70.2,55.5h-13c-1.7,0-3-1.4-3-3V51c0-1.7,1.4-3,3-3h13c1.7,0,3,1.4,3,3v1.4
				C73.2,54.1,71.8,55.5,70.2,55.5z"
				/>
		</g>
		<g 
			id="crater-up2"
			>
			<path 
				id="up2-shadow" 
				fill="#29313D" 
				d="M62.5,24.6H50.6c-1.4,0-2.5-1.1-2.5-2.5v-0.8c0-1.4,1.1-2.5,2.5-2.5h11.9
				c1.4,0,2.5,1.1,2.5,2.5v0.8C65,23.5,63.9,24.6,62.5,24.6z"
				/>
			<path 
				id="up2-surface" 
				fill="#52637A" 
				d="M62.4,23.6H50.6c-1.5,0-2.6-1.2-2.6-2.6v-1.1c0-1.5,1.2-2.6,2.6-2.6h11.7
				c1.5,0,2.6,1.2,2.6,2.6V21C65,22.4,63.8,23.6,62.4,23.6z"
				/>
		</g>
		<g 
			id="crater-up1"
			>
			<path 
				id="up1-shadow" 
				fill="#29313D" 
				d="M40.6,16.5l-7.4,4.3c-1.1,0.6-2.5,0.3-3.2-0.9l-1-1.7c-0.6-1.1-0.3-2.5,0.9-3.2l7.4-4.3
				c1.1-0.6,2.5-0.3,3.2,0.9l1,1.7C42,14.4,41.7,15.8,40.6,16.5z"
				/>
			<path 
				id="up1-surface" 
				fill="#52637A" 
				d="M40,14.9l-7.8,4.5c-1,0.6-2.2,0.2-2.8-0.8L28.9,18c-0.6-1-0.2-2.2,0.8-2.8l7.8-4.5
				c1-0.6,2.2-0.2,2.8,0.8l0.4,0.7C41.3,13.1,41,14.4,40,14.9z"
				/>
		</g>
	</g>
</svg>
