<?xml version="1.0" encoding="utf-8"?>
<!-- Generator: Adobe Illustrator 18.1.1, SVG Export Plug-In . SVG Version: 6.00 Build 0)  -->
<!DOCTYPE svg PUBLIC "-//W3C//DTD SVG 1.1//EN" "http://www.w3.org/Graphics/SVG/1.1/DTD/svg11.dtd">
<svg version="1.1" id="planet" xmlns="http://www.w3.org/2000/svg" xmlns:xlink="http://www.w3.org/1999/xlink" x="0px" y="0px"
	 viewBox="0 0 1600 1600" enable-background="new 0 0 1600 1600" xml:space="preserve">
<circle id="planet-glow" fill="#110022" fill-opacity="0.8" cx="800" cy="800" r="698.2"/>
<g id="crater-back">
	<path id="crater-back4" fill="#DA303A" d="M352,491.6l-42.2,74.2c-5.8,11.6-20.4,14.5-32,8.7l-16-10.2c-11.6-5.8-14.5-20.4-8.7-32
		l42.2-74.2c5.8-11.6,20.4-14.5,32-8.7l16,10.2C354.9,466.9,357.8,481.5,352,491.6z"/>
	<path id="crater-back3" fill="#DA303A" d="M314.2,1000.7l69.8,120.7c10.2,18.9,4.4,42.2-14.5,52.4l-27.6,16
		c-18.9,10.2-42.2,4.4-52.4-14.5l-69.8-120.7c-10.2-18.9-4.4-42.2,14.5-52.4l27.6-16C279.3,976,302.5,981.8,314.2,1000.7z"/>
	<path id="crater-back2" fill="#DA303A" d="M1322.2,868.4V731.6c0-20.4,17.5-37.8,37.8-37.8h30.5c20.4,0,37.8,17.5,37.8,37.8v136.7
		c0,20.4-17.5,37.8-37.8,37.8H1360C1339.6,906.2,1322.2,888.7,1322.2,868.4z"/>
	<path id="crater-back1" fill="#DA303A" d="M1121.5,384l-122.2-69.8c-18.9-10.2-24.7-34.9-14.5-52.4l16-27.6
		c10.2-18.9,34.9-24.7,52.4-14.5l122.2,69.8c18.9,10.2,24.7,34.9,14.5,52.4l-16,27.6C1163.6,388.4,1138.9,394.2,1121.5,384z"/>
</g>
<g id="planet_1_">
	<path id="planet-shadow" fill="#9B1033" d="M1029.8,250.2c30.5,69.8,46.5,148.4,46.5,229.8c0,328.7-267.6,596.4-596.4,596.4
		c-81.5,0-160-16-229.8-46.5c90.2,215.3,302.5,366.5,549.8,366.5c328.7,0,596.4-267.6,596.4-596.4
		C1396.4,552.7,1245.1,340.4,1029.8,250.2z"/>
	<path id="planet-light" fill="#DA303A" d="M1076.4,480c0-81.5-16-160-46.5-229.8C960,219.6,881.5,203.6,800,203.6
		c-328.7,0-596.4,267.6-596.4,596.4c0,81.5,16,160,46.5,229.8c69.8,30.5,148.4,46.5,229.8,46.5
		C808.7,1076.4,1076.4,808.7,1076.4,480z"/>
</g>
<g id="crater-down">
	<g id="crater-down4">
		<path id="down4-shadow" fill="#48002F" d="M1093.8,1120H983.3c-13.1,0-23.3-10.2-23.3-23.3v-7.3c0-13.1,10.2-23.3,23.3-23.3h110.5
			c13.1,0,23.3,10.2,23.3,23.3v7.3C1117.1,1109.8,1106.9,1120,1093.8,1120z"/>
		<path id="down4-surface" fill="#9B1033" d="M1093.8,1130.2H983.3c-13.1,0-23.3-10.2-23.3-23.3v-7.3c0-13.1,10.2-23.3,23.3-23.3
			h110.5c13.1,0,23.3,10.2,23.3,23.3v7.3C1117.1,1120,1106.9,1130.2,1093.8,1130.2z"/>
	</g>
	<g id="crater-down3">
		<path id="down3-shadow" fill="#48002F" d="M577.5,912H466.9c-13.1,0-23.3-10.2-23.3-23.3v-7.3c0-13.1,10.2-23.3,23.3-23.3h110.5
			c13.1,0,23.3,10.2,23.3,23.3v5.8C602.2,900.4,590.5,912,577.5,912z"/>
		<path id="down3-surface" fill="#9B1033" d="M577.5,922.2H466.9c-13.1,0-23.3-10.2-23.3-23.3v-7.3c0-13.1,10.2-23.3,23.3-23.3
			h110.5c13.1,0,23.3,10.2,23.3,23.3v7.3C602.2,912,590.5,922.2,577.5,922.2z"/>
	</g>
	<g id="crater-down2">
		<path id="down2-shadow" fill="#48002F" d="M629.8,650.2h-176c-20.4,0-37.8-17.5-37.8-37.8v-13.1c0-20.4,17.5-37.8,37.8-37.8h176
			c20.4,0,37.8,17.5,37.8,37.8v13.1C667.6,632.7,650.2,650.2,629.8,650.2z"/>
		<path id="down2-surface" fill="#9B1033" d="M629.8,666.2h-176c-20.4,0-37.8-17.5-37.8-37.8v-13.1c0-20.4,17.5-37.8,37.8-37.8h176
			c20.4,0,37.8,17.5,37.8,37.8v13.1C667.6,650.2,650.2,666.2,629.8,666.2z"/>
	</g>
	<g id="crater-down1">
		<path id="down1-shadow" fill="#48002F" d="M1207.3,561.5h-138.2c-16,0-29.1-13.1-29.1-29.1v-10.2c0-16,13.1-29.1,29.1-29.1h138.2
			c16,0,29.1,13.1,29.1,29.1v10.2C1236.4,548.4,1223.3,561.5,1207.3,561.5z"/>
		<path id="down1-surface" fill="#9B1033" d="M1207.3,574.5h-138.2c-16,0-29.1-13.1-29.1-29.1v-10.2c0-16,13.1-29.1,29.1-29.1h138.2
			c16,0,29.1,13.1,29.1,29.1v10.2C1236.4,561.5,1223.3,574.5,1207.3,574.5z"/>
	</g>
</g>
<g id="crater-up">
	<g id="crater-up4">
		<path id="up4-shadow" fill="#48002F" d="M632.7,1236.4h-74.2c-13.1,0-21.8-10.2-21.8-21.8v-21.8c0-13.1,10.2-21.8,21.8-21.8h74.2
			c13.1,0,21.8,10.2,21.8,21.8v21.8C654.5,1226.2,644.4,1236.4,632.7,1236.4z"/>
		<path id="up4-surface" fill="#DA303A" d="M631.3,1223.3h-72.7c-13.1,0-23.3-10.2-23.3-23.3v-23.3c0-13.1,10.2-23.3,23.3-23.3h72.7
			c13.1,0,23.3,10.2,23.3,23.3v23.3C654.5,1213.1,644.4,1223.3,631.3,1223.3z"/>
	</g>
	<g id="crater-up3">
		<path id="up3-shadow" fill="#48002F" d="M1022.5,891.6H829.1c-23.3,0-42.2-18.9-42.2-42.2v-14.5c0-23.3,18.9-42.2,42.2-42.2H1024
			c23.3,0,42.2,18.9,42.2,42.2v14.5C1064.7,872.7,1045.8,891.6,1022.5,891.6z"/>
		<path id="up3-surface" fill="#DA303A" d="M1021.1,880H832c-24.7,0-43.6-20.4-43.6-43.6v-21.8c0-24.7,20.4-43.6,43.6-43.6h189.1
			c24.7,0,43.6,20.4,43.6,43.6v20.4C1064.7,859.6,1044.4,880,1021.1,880z"/>
	</g>
	<g id="crater-up2">
		<path id="up2-shadow" fill="#48002F" d="M909.1,430.5H736c-20.4,0-36.4-16-36.4-36.4v-11.6c0-20.4,16-36.4,36.4-36.4h173.1
			c20.4,0,36.4,16,36.4,36.4v11.6C945.5,414.5,929.5,430.5,909.1,430.5z"/>
		<path id="up2-surface" fill="#DA303A" d="M907.6,416H736c-21.8,0-37.8-17.5-37.8-37.8v-16c0-21.8,17.5-37.8,37.8-37.8h170.2
			c21.8,0,37.8,17.5,37.8,37.8v16C945.5,398.5,928,416,907.6,416z"/>
	</g>
	<g id="crater-up1">
		<path id="up1-shadow" fill="#48002F" d="M590.5,312.7l-107.6,62.5c-16,8.7-36.4,4.4-46.5-13.1l-14.5-24.7
			c-8.7-16-4.4-36.4,13.1-46.5l107.6-62.5c16-8.7,36.4-4.4,46.5,13.1l14.5,24.7C610.9,282.2,606.5,302.5,590.5,312.7z"/>
		<path id="up1-surface" fill="#DA303A" d="M581.8,289.5l-113.5,65.5c-14.5,8.7-32,2.9-40.7-11.6l-7.3-8.7
			c-8.7-14.5-2.9-32,11.6-40.7l113.5-65.5c14.5-8.7,32-2.9,40.7,11.6l5.8,10.2C600.7,263.3,596.4,282.2,581.8,289.5z"/>
	</g>
</g>
</svg>
