<?xml version="1.0" encoding="utf-8"?>
<!DOCTYPE svg PUBLIC "-//W3C//DTD SVG 1.1//EN" "http://www.w3.org/Graphics/SVG/1.1/DTD/svg11.dtd">

<svg version="1.1"
	id="comet"
	xmlns="http://www.w3.org/2000/svg"
	xmlns:xlink="http://www.w3.org/1999/xlink"
	x="0px"
	y="0px"
	viewBox="0 0 80 100"
	enable-background="new 0 0 80 100"
	xml:space="preserve"
>
	<linearGradient
		id="comet-tail-gradient"
		gradientUnits="userSpaceOnUse"
		x1="-2.9203"
		y1="40.136"
		x2="78.0797"
		y2="40.136"
		gradientTransform="matrix(0.7071 -0.7071 0.7071 0.7071 -15.4533 55.6924)"
	>
	<stop
		offset="0"
		style="stop-color:#3D4A5C;stop-opacity:0.4"
	/>
	<stop
		offset="1"
		style="stop-color:#8596AD;stop-opacity:0"
	/>
	</linearGradient>

	<path
		id="comet-tail"
		fill="url(#comet-tail-gradient)"
		d="M10.6,71.5C6.1,76,6.8,82,10.9,86.1s10.1,4.7,14.6,0.3
		c1.3-1.3,50.1-50.1,50.1-50.1L60.7,21.4C60.7,21.4,11.9,70.3,10.6,71.5z"
	/>
	<g
		id="comet-body"
	>
		<path
			id="comet-body-trailing"
			fill="#D43B11"
			d="M38.4,52.2l1.4-1.4c0.6-0.6,0.6-1.5,0-2.1c-0.6-0.6-1.5-0.6-2.1,0l-1.4,1.4
			c-0.6,0.6-0.6,1.5,0,2.1C36.9,52.8,37.9,52.8,38.4,52.2z"
		/>
		<path
			id="comet-body-main"
			fill="#D43B11"
			d="M46.9,52.2c0.6-0.6,0.6-1.5,0-2.1s-1.5-0.6-2.1,0L26.4,68.5c-0.6,0.6-1.5,0.6-2.1,0
			s-0.6-1.5,0-2.1l10.6-10.6c0.6-0.6,0.6-1.5,0-2.1s-1.5-0.6-2.1,0c0,0-18.8,18.8-19.8,19.8c-2.9,2.9-2.9,7.7,0,10.6
			c2.9,2.9,7.7,2.9,10.6,0c0.4-0.4,21.9-21.9,21.9-21.9c0.6-0.6,0.6-1.5,0-2.1c-0.6-0.6-1.5-0.6-2.1,0L32.1,71.3
			c-0.6,0.6-1.5,0.6-2.1,0s-0.6-1.5,0-2.1L46.9,52.2z"
		/>
	</g>
</svg>
