<?xml version="1.0" encoding="utf-8"?>
<!-- RYAN ALLEN  -->
<!DOCTYPE svg PUBLIC "-//W3C//DTD SVG 1.1//EN" "http://www.w3.org/Graphics/SVG/1.1/DTD/svg11.dtd">
<svg version="1.1" 
	id="spacesuit" 
	xmlns="http://www.w3.org/2000/svg" 
	xmlns:xlink="http://www.w3.org/1999/xlink" 
	x="0px" 
	y="0px"
	viewBox="0 0 100 200" 
	enable-background="new 0 0 100 200" 
	xml:space="preserve"
	>
	<path 
		id="helmet-interior" 
		opacity="0.8" 
		fill="#29313D" 
		d="M32.2,180h41.6c3.4,0,6.1-2.7,6.1-6.1V28.4C80,18.2,71.8,10,61.6,10
		H44.5C31,10,20,21,20,34.5v133.3C20,174.5,25.5,180,32.2,180z"
		/>
	<path 
		id="visor" 
		fill="#52637A" 
		d="M80,131V65V28.4C80,18.2,71.8,10,61.6,10H44.5C31,10,20,21,20,34.5V131H80z"
		/>
	<g id="space-ryan"
		>
		<polygon 
			id="body" 
			fill="#8596AD" 
			points="30,165 30,130 70,130 70,180 40,180 40,165"
			/>
		<linearGradient 
			id="shadow-hat-gradient" 
			gradientUnits="userSpaceOnUse" 
			x1="50.0301" 
			y1="135.0996" 
			x2="50.1994" 
			y2="152.5411"
			>
			<stop 
				offset="0" 
				style="stop-color:#52637A;stop-opacity:0.9"
				/>
			<stop 
				offset="1" 
				style="stop-color:#667B99;stop-opacity:0"
				/>
		</linearGradient>
		<polygon 
			id="shadow-hat" 
			fill="url(#shadow-hat-gradient)" 
			points="30,132 40,165 70,165 70,132"
			/>
		<g id="mouth"
			>
			<path 
				id="mouth-roof" 
				fill="#29313D" 
				d="M46,172h-5v1c0,0.4,0.1,0.7,0.3,1c0.3-0.6,1-1,1.7-1h1c0.7,0,1.4,0.4,1.7,1
				c0.2-0.3,0.3-0.6,0.3-1V172z"
				/>
			<path 
				id="tongue" 
				fill="#52637A" 
				d="M44,173h-1c-0.7,0-1.4,0.4-1.7,1c0.3,0.6,1,1,1.7,1h1c0.7,0,1.4-0.4,1.7-1
				C45.4,173.4,44.7,173,44,173z"
				/>
		</g>
		<g id="eyes">
			<g id="left-eye"
				>
				<path 
					id="left-eye_cornea" 
					fill="#52637A" 
					d="M27,141c0,2.2,0.8,4,3,4s3-1.8,3-4s-0.8-4-3-4S27,138.8,27,141z"
					/>
				<path 
					id="left-eye-pupil" 
					fill="#29313D" 
					d="M30,142.3c-0.7,0-1-0.6-1-1.3s0.3-1.3,1-1.3s1,0.6,1,1.3S30.7,142.3,30,142.3z"
					/>
			</g>
			<g id="right-eye">
				<circle 
					id="right-eye_cornea" 
					fill="#667B99" 
					cx="49" 
					cy="141" 
					r="5"
					/>
				<circle 
					id="right-eye_pupil" 
					fill="#3D4A5C" 
					cx="49" 
					cy="141" 
					r="2"
					/>
			</g>
		</g>
		<g id="monocle">
			<g id="monocle-shadow">
				<rect 
					id="monocle-shadow_handle" 
					x="56" 
					y="141" 
					fill="#667B99" 
					width="1" 
					height="1"
					/>
				<rect 
					id="monocle-shadow_chain" 
					x="57" 
					y="168" 
					fill="#667B99" 
					width="2" 
					height="2"
					/>
				<path 
					id="monocle-shadow_bottom" 
					fill="#667B99" 
					d="M49,148c-3.7,0-6.7-2.9-7-6.5c0,0.2,0,0.3,0,0.5c0,3.9,3.1,7,7,7
					c2.8,0,5.2-1.6,6.3-4H59v-1h-3.7C54.2,146.4,51.8,148,49,148z"
					/>
				<path 
					id="monocle-shadow_top" 
					fill="#52637A" 
					d="M49,136c-2.8,0-5,2.2-5,5c0,0.2,0,0.3,0.1,0.5c0.3-2.5,2.4-4.5,4.9-4.5
					s4.7,2,4.9,4.5c0-0.2,0.1-0.3,0.1-0.5C54,138.2,51.8,136,49,136z"
					/>
			</g>
			<rect id="monocle-chain" x="57" y="142" fill="#BD350F" width="2" height="26"/>
			<path id="monocle-ring" fill="#BD350F" d="M55.7,139c-0.9-2.9-3.5-5-6.7-5c-3.9,0-7,3.1-7,7c0,0.2,0,0.3,0,0.5
				c0.3,3.6,3.3,6.5,7,6.5c2.8,0,5.2-1.6,6.3-4H59v-4v-1H55.7z M53.9,141.5c-0.3,2.5-2.4,4.5-4.9,4.5s-4.7-2-4.9-4.5
				c0-0.2-0.1-0.3-0.1-0.5c0-2.8,2.2-5,5-5s5,2.2,5,5C54,141.2,54,141.3,53.9,141.5z M57,142h-1v-1h1V142z"/>
			<circle id="monocle-glare" fill="#8596AD" cx="48" cy="139" r="1"/>
		</g>
	</g>
	<path 
		id="spacesuit" 
		fill="#3D4A5C" 
		d="M94,130c0-3.4-1.6-6.5-4-8.5V23.1C90,10.3,79.7,0,66.9,0H44.6C25.5,0,10,15.5,10,34.6
		v132.3c0,8.9,5,16.6,12.3,20.4c4.7,2.5,7.7,7.2,7.7,12.5v0.2h50v-0.8c0-4.6,2.1-8.9,5.7-11.7c2.6-2.1,4.3-5.4,4.3-9v-40
		C92.4,136.5,94,133.4,94,130z M20,34.5C20,21,31,10,44.5,10h17.1C71.8,10,80,18.2,80,28.4V119c-5.4,0-9.9,3.9-10.8,9H20V34.5z
		 M80,173.9c0,3.4-2.7,6.1-6.1,6.1H32.2c-6.8,0-12.2-5.5-12.2-12.2V132h49.2c0.9,5.1,5.4,9,10.8,9V173.9z"
		 />
	<g id="glare">
		<ellipse 
			id="glare-large" 
			fill="#667B99" 
			cx="37" 
			cy="31" 
			rx="5" 
			ry="7"
			/>
		<ellipse 
			id="glare-small" 
			fill="#667B99" 
			cx="31" 
			cy="24" 
			rx="2" 
			ry="2.8"
			/>
	</g>
	<circle 
		id="helmet-visor-circle" 
		fill="#333E4D" 
		cx="84" 
		cy="130" 
		r="6"
		/>
</svg>
