<?xml version="1.0" encoding="utf-8"?>
<!-- Generator: Adobe Illustrator 18.1.1, SVG Export Plug-In . SVG Version: 6.00 Build 0)  -->
<!DOCTYPE svg PUBLIC "-//W3C//DTD SVG 1.1//EN" "http://www.w3.org/Graphics/SVG/1.1/DTD/svg11.dtd">
<svg version="1.1" id="stars" xmlns="http://www.w3.org/2000/svg" xmlns:xlink="http://www.w3.org/1999/xlink" x="0px" y="0px"
	 viewBox="0 0 1600 1600" enable-background="new 0 0 1600 1600" xml:space="preserve">
<polygon id="star1" fill="#48002f" points="48,32 40,16 32,32 16,40 32,48 40,64 48,48 64,40 "/>
<polygon id="star2" fill="#48002f" points="1144,40 1136,24 1128,40 1112,48 1128,56 1136,72 1144,56 1160,48 "/>
<polygon id="star3" fill="#9b1033" points="208,128 200,112 192,128 176,136 192,144 200,160 208,144 224,136 "/>
<polygon id="star4" fill="#48002f" points="528,104 520,88 512,104 496,112 512,120 520,136 528,120 544,112 "/>
<polygon id="star5" fill="#9b1033" points="992,120 984,104 976,120 960,128 976,136 984,152 992,136 1008,128 "/>
<polygon id="star6" fill="#da303a" points="320,224 312,208 304,224 288,232 304,240 312,256 320,240 336,232 "/>
<polygon id="star7" fill="#48002f" points="1416,232 1408,216 1400,232 1384,240 1400,248 1408,264 1416,248 1432,240 "/>
<polygon id="star8" fill="#9b1033" points="112,312 104,296 96,312 80,320 96,328 104,344 112,328 128,320 "/>
<polygon id="star9" fill="#48002f" points="688,352 680,336 672,352 656,360 672,368 680,384 688,368 704,360 "/>
<polygon id="star10" fill="#48002f" points="1088,352 1080,336 1072,352 1056,360 1072,368 1080,384 1088,368 1104,360 "/>
<polygon id="star11" fill="#da303a" points="384,504 376,488 368,504 352,512 368,520 376,536 384,520 400,512 "/>
<polygon id="star12" fill="#48002f" points="1360,544 1352,528 1344,544 1328,552 1344,560 1352,576 1360,560 1376,552 "/>
<polygon id="star13" fill="#48002f" points="128,608 120,592 112,608 96,616 112,624 120,640 128,624 144,616 "/>
<polygon id="star14" fill="#48002f" points="384,624 376,608 368,624 352,632 368,640 376,656 384,640 400,632 "/>
<polygon id="star15" fill="#da303a" points="704,648 696,632 688,648 672,656 688,664 696,680 704,664 720,656 "/>
<polygon id="star16" fill="#48002f" points="968,656 960,640 952,656 936,664 952,672 960,688 968,672 984,664 "/>
<polygon id="star17" fill="#9b1033" points="1480,632 1472,616 1464,632 1448,640 1464,648 1472,664 1480,648 1496,640 "/>
<polygon id="star18" fill="#48002f" points="248,696 240,680 232,696 216,704 232,712 240,728 248,712 264,704 "/>
<polygon id="star19" fill="#48002f" points="544,720 536,704 528,720 512,728 528,736 536,752 544,736 560,728 "/>
<polygon id="star20" fill="#48002f" points="1328,712 1320,696 1312,712 1296,720 1312,728 1320,744 1328,728 1344,720 "/>
<polygon id="star21" fill="#48002f" points="1576,760 1568,744 1560,760 1544,768 1560,776 1568,792 1576,776 1592,768 "/>
<polygon id="star22" fill="#48002f" points="400,800 392,784 384,800 368,808 384,816 392,832 400,816 416,808 "/>
<polygon id="star23" fill="#48002f" points="1240,848 1232,832 1224,848 1208,856 1224,864 1232,880 1240,864 1256,856 "/>
<polygon id="star24" fill="#da303a" points="880,888 872,872 864,888 848,896 864,904 872,920 880,904 896,896 "/>
<polygon id="star25" fill="#48002f" points="72,904 64,888 56,904 40,912 56,920 64,936 72,920 88,912 "/>
<polygon id="star26" fill="#9b1033" points="1424,944 1416,928 1408,944 1392,952 1408,960 1416,976 1424,960 1440,952 "/>
<polygon id="star27" fill="#48002f" points="768,1032 760,1016 752,1032 736,1040 752,1048 760,1064 768,1048 784,1040 "/>
<polygon id="star28" fill="#48002f" points="256,1128 248,1112 240,1128 224,1136 240,1144 248,1160 256,1144 272,1136 "/>
<polygon id="star29" fill="#48002f" points="984,1128 976,1112 968,1128 952,1136 968,1144 976,1160 984,1144 1000,1136 "/>
<polygon id="star30" fill="#48002f" points="1264,1136 1256,1120 1248,1136 1232,1144 1248,1152 1256,1168 1264,1152 1280,1144 "/>
<polygon id="star31" fill="#da303a" points="464,1200 456,1184 448,1200 432,1208 448,1216 456,1232 464,1216 480,1208 "/>
<polygon id="star32" fill="#48002f" points="584,1288 576,1272 568,1288 552,1296 568,1304 576,1320 584,1304 600,1296 "/>
<polygon id="star33" fill="#48002f" points="1304,1296 1296,1280 1288,1296 1272,1304 1288,1312 1296,1328 1304,1312 1320,1304 "/>
<polygon id="star34" fill="#48002f" points="1520,1328 1512,1312 1504,1328 1488,1336 1504,1344 1512,1360 1520,1344 1536,1336 "/>
<polygon id="star35" fill="#48002f" points="824,1376 816,1360 808,1376 792,1384 808,1392 816,1408 824,1392 840,1384 "/>
<polygon id="star36" fill="#9b1033" points="1104,1392 1096,1376 1088,1392 1072,1400 1088,1408 1096,1424 1104,1408 1120,1400 "/>
<polygon id="star37" fill="#da303a" points="176,1424 168,1408 160,1424 144,1432 160,1440 168,1456 176,1440 192,1432 "/>
<polygon id="star38" fill="#da303a" points="464,1448 456,1432 448,1448 432,1456 448,1464 456,1480 464,1464 480,1456 "/>
<polygon id="star39" fill="#48002f" points="792,1552 784,1536 776,1552 760,1560 776,1568 784,1584 792,1568 808,1560 "/>
<polygon id="star40" fill="#9b1033" points="1296,1536 1288,1520 1280,1536 1264,1544 1280,1552 1288,1568 1296,1552 1312,1544 "/>
</svg>
